# xmcd CD database file
#
# Track frame offsets:
#	150
#	59675
#	101368
#	134246
#	182734
#	244880
#
# Disc length: 4478 seconds
#
# Revision: 0
# Processed by: cddbd v1.5.2PL0 Copyright (c) Steve Scherf et al.
# Submitted via: CDex 1.51
#
DISCID=59117c06
DTITLE=Kullhammar Osgood Vågan - Andratx live
DYEAR=2009
DGENRE=Jazz
TTITLE0=Snake citu rundown
TTITLE1=The two-step
TTITLE2=Morsan å farsan
TTITLE3=Opti
TTITLE4=Farah
TTITLE5=Attainment
EXTD=YEAR: 2009
EXTT0=
EXTT1=
EXTT2=
EXTT3=
EXTT4=
EXTT5=
PLAYORDER=
